<svg id="Icon" data-name="Icon" xmlns="http://www.w3.org/2000/svg" viewBox="0 0 512 512">
  <defs>
    <style>
      .cls-1{fill:#000000;}.cls-2{fill:#40739e;}
      @media (prefers-color-scheme: dark) {.cls-1{fill:#ffffff;}}
    </style>
  </defs>
  <path class="cls-1" d="M254.46,262.56H225.34V340.9c0,20.31,4.51,27.07,29.94,30.76v10H124.85v-10c23.18-4.3,27.69-9.22,27.69-27.68V123.31c0-18.45-4.51-23.37-27.69-27.68v-10H254.46c84.49,0,132.69,29.74,132.69,85.72C387.15,232,328.7,262.56,254.46,262.56ZM239.9,97.88l-14.56-.61v153.6l14.56-.61c46.76-2,70.55-31,70.55-75.88C310.45,130.29,288.5,99.94,239.9,97.88Z"/>
  <rect class="cls-2" x="125" y="412" width="262" height="42"/>
</svg>